/* XPM */
static char *hitori[] = {
/* columns rows colors chars-per-pixel */
"32 32 208 2",
"   c gray2",
".  c #080807",
"X  c gray3",
"o  c gray4",
"O  c #0C0C0C",
"+  c #110808",
"@  c #120808",
"#  c #101010",
"$  c #121510",
"%  c gray8",
"&  c #151515",
"*  c #161615",
"=  c gray9",
"-  c #181818",
";  c gray10",
":  c #1B1C1B",
">  c #202020",
",  c gray13",
"<  c #222221",
"1  c #222222",
"2  c #232323",
"3  c gray14",
"4  c #252525",
"5  c #272726",
"6  c #272827",
"7  c gray16",
"8  c #2A2A29",
"9  c #2B2B2A",
"0  c #2C2C2B",
"q  c gray18",
"w  c #30302F",
"e  c #323231",
"r  c #323232",
"t  c #323332",
"y  c #333332",
"u  c #343433",
"i  c #353535",
"p  c #363635",
"a  c gray22",
"s  c #393A39",
"d  c #3C3C3B",
"f  c #3C3C3C",
"g  c #3E3E3D",
"h  c #3F3F3E",
"j  c #424241",
"k  c gray26",
"l  c #434342",
"z  c #444544",
"x  c #474746",
"c  c gray28",
"v  c #484948",
"b  c #4B4B4A",
"n  c #4B4C4B",
"m  c #4C4C4C",
"M  c #4D4D4C",
"N  c #4F504F",
"B  c #515150",
"V  c #515251",
"C  c #535453",
"Z  c gray33",
"A  c #555554",
"S  c #555555",
"D  c #5C5351",
"F  c #5A5554",
"G  c #5A5A5A",
"H  c #5F605F",
"J  c gray38",
"K  c #656665",
"L  c #666766",
"P  c #686967",
"I  c #696A68",
"U  c #696A69",
"Y  c #6A6A68",
"T  c #6B6B6A",
"R  c #6B6C6B",
"E  c #6C6D6C",
"W  c #6D6E6D",
"Q  c gray43",
"!  c #717270",
"~  c #727370",
"^  c #757674",
"/  c #767675",
"(  c #767775",
")  c #797978",
"_  c #797A78",
"`  c #797A79",
"'  c #7A7A79",
"]  c #7A7B7A",
"[  c #7B7B7B",
"{  c #7C7C7B",
"}  c #7C7D7C",
"|  c #9D0000",
" . c #A10000",
".. c #A20000",
"X. c #A30101",
"o. c #A30202",
"O. c #A40000",
"+. c #A40202",
"@. c #A50202",
"#. c #A40303",
"$. c #A50303",
"%. c #A10602",
"&. c #A50404",
"*. c #CC0000",
"=. c #CC0202",
"-. c #CD0404",
";. c #EF2929",
":. c #EF2B2B",
">. c #EF2C2C",
",. c #D94848",
"<. c #DA4A4A",
"1. c #DB4A4A",
"2. c #DB4C4C",
"3. c #EE6161",
"4. c #EF6363",
"5. c #F26666",
"6. c #F46767",
"7. c #F46969",
"8. c #4C9507",
"9. c #4E9807",
"0. c #4E9A06",
"q. c #4F9A07",
"w. c #509706",
"e. c #509B08",
"r. c #509B0A",
"t. c #519C0B",
"y. c #8AE234",
"u. c #8BE236",
"i. c #8CE237",
"p. c #A8E76B",
"a. c #ABE96E",
"s. c #ACEA6F",
"d. c #ADEB71",
"f. c #818280",
"g. c #828380",
"h. c #828381",
"j. c #868685",
"k. c #868786",
"l. c #878786",
"z. c #898988",
"x. c #898A88",
"c. c #8A8B88",
"v. c #8A8B8A",
"b. c #8D8D8C",
"n. c #8E8F8D",
"m. c #8F908E",
"M. c #90918F",
"N. c #91928F",
"B. c #929390",
"V. c #939491",
"C. c #939493",
"Z. c #959695",
"A. c #969796",
"S. c #9B9C9A",
"D. c #9C9C9B",
"F. c #9E9F9C",
"G. c #C4C5C2",
"H. c #C4C5C3",
"J. c #C5C6C3",
"K. c #C7C7C5",
"L. c #C7C8C6",
"P. c #CBCCCA",
"I. c #CCCDCB",
"U. c #CDCECC",
"Y. c #CECFCD",
"T. c #CFD0CE",
"R. c #D0D0CE",
"E. c #D0D0CF",
"W. c #D0D1CF",
"Q. c #D1D2D0",
"!. c #D2D3D1",
"~. c #D2D3D2",
"^. c #D3D4D2",
"/. c #D4D5D3",
"(. c #D5D6D4",
"). c #E3E2DB",
"_. c #EAE6E4",
"`. c #E9EBE7",
"'. c #EAEBE9",
"]. c #EDE8E8",
"[. c #EEE9E8",
"{. c #EEEAE8",
"}. c #EFEAE9",
"|. c #EAECE8",
" X c #EBEDE9",
".X c #ECEDEB",
"XX c #F0EBEA",
"oX c #F0ECEA",
"OX c #EDF0EA",
"+X c #EEF1EB",
"@X c #EFF3EC",
"#X c #EFF0EE",
"$X c #F0F0EF",
"%X c #F1F1F0",
"&X c #F1F2F0",
"*X c #F2F2F1",
"=X c #F2F3F1",
"-X c #F3F3F2",
";X c #F3F4F2",
":X c #F4F4F3",
">X c #F4F5F3",
",X c #F5F5F4",
"<X c #F5F6F4",
"1X c #F8F8F7",
"2X c #F8F9F7",
"3X c #F8F9F8",
"4X c #F9F9F8",
"5X c None",
/* pixels */
"5X5X5X5X5X5X5X5X5X5X5X5X5X5X5X5X5X5X5X5X5X5X5X5X5X5X5X5X5X5X5X5X",
"5X5X5X5X5X5X5X5X5X5X5X5X5X5X5X5X5X5X5X5X5X5X5X5X5X5X5X5X5X5X5X5X",
"5X5X5X5X5X5X5X5X5X5X5X5X5X5X5X5X5X5X5X5X5X5X5X5X5X5X5X5X5X5X5X5X",
"5X5X5X5X5X5X5X5X5X5X5X5X5X5X5X5X5X5X5X5X5X5X5X5X5X5X5X5X5X5X5X5X",
"5X5X5X5X5X5X5X5X5X5X5X5X5X5X5X5X5X5X5X5X5X5X5X5X5X5X5X5X5X5X5X5X",
"5X5X5X5X5X5X5X5X5X5X5X5X5X5X5X+ 5X5X5X5X@ 5X5X5X5X5X5X5X5X5X5X5X",
"5X5X5X5X5XZ A.v.[ E q V l t 1  .#.#.&.&.O.F U ` z.m 5X5X5X5X5X5X",
"5X5X5X5X5XJ Q.(.(.(.H ;X3X3X4X$.5.6.6.7.&.oX4X4X4XL 5X5X5X5X5X5X",
"5X5X5X5X5XS Q.H.G.(.C -X|.`.4X+.5.:.;.6.&.XX|.`.4XG 5X5X5X5X5X5X",
"5X5X5X5X5Xv W.J.H.(.x *X X|.4X+.5.>.:.6.&.}. X|.4XM 5X5X5X5X5X5X",
"5X5X5X5X5Xf U.~.!.!.s .X*X*X&X+.3.4.4.4.&._.-X:X<Xg 5X5X5X5X5X5X",
"5X5X5X5X5X4 V.x.' T % B l y 2 O.@.@.@.@.O.D Y _ c., 5X5X5X5X5X5X",
"5X5X5X5X5X3 &X3X3X4X3 &X3X3X4XX.<.1.1.2.o.{.3X3X4X4 5X5X5X5X5X5X",
"5X5X5X5X5X- %X|.`.4X= %X|.`.4X..<.=.*.1.o.[.|.`.4X- 5X5X5X5X5X5X",
"5X5X5X5X5Xo $X X|.4Xo $X X|.4X..<.-.=.1.o.]. X|.4Xo 5X5X5X5X5X5X",
"5X5X5X5X5X# .X,X:X>X# '.*X*X&X..,.<.<.<.%.).OX+X@X$ 5X5X5X5X5X5X",
"5X5X5X5X5X* S.N.f.! O b g w > | ....X.X.w.r.r.r.t.0.5X5X5X5X5X5X",
"5X5X5X5X5X9 &X4X4X4X6 T.^.^./.7 &X4X4X4Xq.a.s.s.d.r.5X5X5X5X5X5X",
"5X5X5X5X5Xa *X|.`.4Xu R.G.J./.p *X|.`.4Xq.a.u.y.s.r.5X5X5X5X5X5X",
"5X5X5X5X5Xz *X X|.4Xh E.K.L./.j *X X|.4Xq.a.i.u.s.r.5X5X5X5X5X5X",
"5X5X5X5X5XB #X,X:X>Xb P.Y.Y.I.M '.%X%X=Xq.p.a.a.a.r.5X5X5X5X5X5X",
"5X5X5X5X5Xc F.B.g.~ 5 N j r < . o ; 8 s 8.q.e.e.e.9.5X5X5X5X5X5X",
"5X5X5X5X5XR ;X3X3X4XI ;X3X3X4XP ;X3X3X4XP ;X3X3X4XW 5X5X5X5X5X5X",
"5X5X5X5X5X) :X|.`.4X( :X|.`.4X^ :X|.`.4X^ :X|.`.4X] 5X5X5X5X5X5X",
"5X5X5X5X5Xk.:X X|.4Xh.:X X|.4Xf.:X X|.4Xh.:X X|.4Xl.5X5X5X5X5X5X",
"5X5X5X5X5XC.>X1X1X2XM.>X1X1X2Xn.>X1X1X2Xm.>X1X1X2XZ.5X5X5X5X5X5X",
"5X5X5X5X5X{ D.b.} E k n d 0 : X   & 4 i e A K / j.Q 5X5X5X5X5X5X",
"5X5X5X5X5X5X5X5X5X5X5X5X5X5X5X5X5X5X5X5X5X5X5X5X5X5X5X5X5X5X5X5X",
"5X5X5X5X5X5X5X5X5X5X5X5X5X5X5X5X5X5X5X5X5X5X5X5X5X5X5X5X5X5X5X5X",
"5X5X5X5X5X5X5X5X5X5X5X5X5X5X5X5X5X5X5X5X5X5X5X5X5X5X5X5X5X5X5X5X",
"5X5X5X5X5X5X5X5X5X5X5X5X5X5X5X5X5X5X5X5X5X5X5X5X5X5X5X5X5X5X5X5X",
"5X5X5X5X5X5X5X5X5X5X5X5X5X5X5X5X5X5X5X5X5X5X5X5X5X5X5X5X5X5X5X5X"
};
